<svg xmlns="http://www.w3.org/2000/svg" xmlns:xlink="http://www.w3.org/1999/xlink" width="500" zoomAndPan="magnify" viewBox="0 0 375 374.999991" height="500" preserveAspectRatio="xMidYMid meet" version="1.0"><defs><g/><clipPath id="139cd80717"><path d="M 120.65625 120.65625 L 254.15625 120.65625 L 254.15625 254.15625 L 120.65625 254.15625 Z M 120.65625 120.65625 " clip-rule="nonzero"/></clipPath><clipPath id="b2d2ac9414"><path d="M 158.007812 157 L 213 157 L 213 228.097656 L 158.007812 228.097656 Z M 158.007812 157 " clip-rule="nonzero"/></clipPath><clipPath id="65291251ce"><path d="M 174 147.101562 L 190 147.101562 L 190 162 L 174 162 Z M 174 147.101562 " clip-rule="nonzero"/></clipPath><clipPath id="a926402bed"><path d="M 197 168 L 217.257812 168 L 217.257812 189 L 197 189 Z M 197 168 " clip-rule="nonzero"/></clipPath></defs><path fill="#8c3839" d="M 299.535156 187.65625 C 299.535156 189.492188 299.488281 191.328125 299.398438 193.164062 C 299.308594 195 299.175781 196.832031 298.992188 198.660156 C 298.8125 200.488281 298.589844 202.308594 298.320312 204.128906 C 298.050781 205.945312 297.738281 207.753906 297.378906 209.554688 C 297.019531 211.359375 296.617188 213.148438 296.171875 214.929688 C 295.726562 216.714844 295.238281 218.484375 294.703125 220.242188 C 294.171875 222 293.59375 223.742188 292.976562 225.472656 C 292.359375 227.203125 291.699219 228.917969 290.996094 230.613281 C 290.292969 232.3125 289.550781 233.988281 288.765625 235.652344 C 287.980469 237.3125 287.152344 238.953125 286.289062 240.570312 C 285.421875 242.191406 284.519531 243.789062 283.574219 245.367188 C 282.632812 246.941406 281.648438 248.492188 280.628906 250.019531 C 279.609375 251.546875 278.550781 253.050781 277.457031 254.527344 C 276.367188 256 275.234375 257.449219 274.070312 258.871094 C 272.90625 260.289062 271.707031 261.679688 270.476562 263.042969 C 269.242188 264.402344 267.976562 265.734375 266.679688 267.03125 C 265.378906 268.332031 264.050781 269.597656 262.691406 270.832031 C 261.332031 272.066406 259.941406 273.265625 258.523438 274.429688 C 257.101562 275.59375 255.65625 276.726562 254.183594 277.820312 C 252.707031 278.914062 251.207031 279.972656 249.679688 280.992188 C 248.152344 282.011719 246.601562 282.996094 245.027344 283.941406 C 243.453125 284.882812 241.855469 285.789062 240.238281 286.65625 C 238.617188 287.519531 236.980469 288.347656 235.320312 289.132812 C 233.660156 289.917969 231.984375 290.664062 230.285156 291.363281 C 228.589844 292.066406 226.878906 292.730469 225.148438 293.347656 C 223.421875 293.96875 221.679688 294.542969 219.921875 295.078125 C 218.164062 295.609375 216.394531 296.097656 214.617188 296.546875 C 212.835938 296.992188 211.042969 297.394531 209.242188 297.753906 C 207.441406 298.113281 205.632812 298.425781 203.820312 298.695312 C 202.003906 298.964844 200.179688 299.1875 198.355469 299.371094 C 196.527344 299.550781 194.695312 299.683594 192.863281 299.773438 C 191.03125 299.863281 189.195312 299.910156 187.359375 299.910156 C 185.523438 299.910156 183.6875 299.863281 181.855469 299.773438 C 180.019531 299.683594 178.191406 299.550781 176.363281 299.371094 C 174.535156 299.1875 172.714844 298.964844 170.898438 298.695312 C 169.082031 298.425781 167.273438 298.113281 165.476562 297.753906 C 163.675781 297.394531 161.882812 296.992188 160.101562 296.546875 C 158.320312 296.097656 156.554688 295.609375 154.796875 295.078125 C 153.039062 294.542969 151.296875 293.96875 149.570312 293.347656 C 147.839844 292.730469 146.128906 292.066406 144.429688 291.363281 C 142.734375 290.664062 141.058594 289.917969 139.398438 289.132812 C 137.738281 288.347656 136.097656 287.519531 134.480469 286.65625 C 132.859375 285.789062 131.265625 284.882812 129.691406 283.941406 C 128.113281 282.996094 126.5625 282.011719 125.039062 280.992188 C 123.511719 279.972656 122.011719 278.914062 120.535156 277.820312 C 119.0625 276.726562 117.613281 275.59375 116.195312 274.429688 C 114.777344 273.265625 113.386719 272.066406 112.027344 270.832031 C 110.667969 269.597656 109.335938 268.332031 108.039062 267.03125 C 106.742188 265.734375 105.476562 264.402344 104.242188 263.042969 C 103.011719 261.679688 101.8125 260.289062 100.648438 258.871094 C 99.480469 257.449219 98.351562 256 97.257812 254.527344 C 96.164062 253.050781 95.109375 251.546875 94.089844 250.019531 C 93.070312 248.492188 92.085938 246.941406 91.144531 245.367188 C 90.199219 243.789062 89.292969 242.191406 88.429688 240.570312 C 87.5625 238.953125 86.738281 237.3125 85.953125 235.652344 C 85.167969 233.988281 84.425781 232.3125 83.722656 230.613281 C 83.019531 228.917969 82.359375 227.203125 81.742188 225.472656 C 81.121094 223.742188 80.546875 222 80.015625 220.242188 C 79.480469 218.484375 78.992188 216.714844 78.546875 214.929688 C 78.097656 213.148438 77.699219 211.359375 77.339844 209.554688 C 76.980469 207.753906 76.667969 205.945312 76.398438 204.128906 C 76.128906 202.308594 75.902344 200.488281 75.722656 198.660156 C 75.542969 196.832031 75.410156 195 75.320312 193.164062 C 75.230469 191.328125 75.183594 189.492188 75.183594 187.65625 C 75.183594 185.820312 75.230469 183.984375 75.320312 182.148438 C 75.410156 180.3125 75.542969 178.480469 75.722656 176.652344 C 75.902344 174.824219 76.128906 173.003906 76.398438 171.183594 C 76.667969 169.367188 76.980469 167.558594 77.339844 165.757812 C 77.699219 163.953125 78.097656 162.164062 78.546875 160.378906 C 78.992188 158.597656 79.480469 156.828125 80.015625 155.070312 C 80.546875 153.3125 81.121094 151.570312 81.742188 149.839844 C 82.359375 148.109375 83.019531 146.394531 83.722656 144.699219 C 84.425781 143 85.167969 141.320312 85.953125 139.660156 C 86.738281 138 87.5625 136.359375 88.429688 134.738281 C 89.292969 133.121094 90.199219 131.523438 91.144531 129.945312 C 92.085938 128.371094 93.070312 126.820312 94.089844 125.292969 C 95.109375 123.761719 96.164062 122.261719 97.257812 120.785156 C 98.351562 119.3125 99.480469 117.863281 100.648438 116.441406 C 101.8125 115.023438 103.011719 113.632812 104.242188 112.269531 C 105.476562 110.910156 106.742188 109.578125 108.039062 108.28125 C 109.335938 106.980469 110.667969 105.714844 112.027344 104.480469 C 113.386719 103.246094 114.777344 102.046875 116.195312 100.882812 C 117.613281 99.71875 119.0625 98.585938 120.535156 97.492188 C 122.011719 96.398438 123.511719 95.339844 125.039062 94.320312 C 126.5625 93.300781 128.113281 92.316406 129.691406 91.371094 C 131.265625 90.429688 132.859375 89.523438 134.480469 88.65625 C 136.097656 87.789062 137.738281 86.964844 139.398438 86.179688 C 141.058594 85.394531 142.734375 84.648438 144.429688 83.945312 C 146.128906 83.242188 147.839844 82.582031 149.570312 81.964844 C 151.296875 81.34375 153.039062 80.769531 154.796875 80.234375 C 156.554688 79.703125 158.320312 79.210938 160.101562 78.765625 C 161.882812 78.320312 163.675781 77.917969 165.476562 77.558594 C 167.273438 77.199219 169.082031 76.886719 170.898438 76.617188 C 172.714844 76.347656 174.535156 76.121094 176.363281 75.941406 C 178.191406 75.761719 180.019531 75.628906 181.855469 75.539062 C 183.6875 75.445312 185.523438 75.402344 187.359375 75.402344 C 189.195312 75.402344 191.03125 75.445312 192.863281 75.539062 C 194.695312 75.628906 196.527344 75.761719 198.355469 75.941406 C 200.179688 76.121094 202.003906 76.347656 203.820312 76.617188 C 205.632812 76.886719 207.441406 77.199219 209.242188 77.558594 C 211.042969 77.917969 212.835938 78.320312 214.617188 78.765625 C 216.394531 79.210938 218.164062 79.703125 219.921875 80.234375 C 221.679688 80.769531 223.421875 81.34375 225.148438 81.964844 C 226.878906 82.582031 228.589844 83.242188 230.285156 83.945312 C 231.984375 84.648438 233.660156 85.394531 235.320312 86.179688 C 236.980469 86.964844 238.617188 87.789062 240.238281 88.65625 C 241.855469 89.523438 243.453125 90.429688 245.027344 91.371094 C 246.601562 92.316406 248.152344 93.300781 249.679688 94.320312 C 251.207031 95.339844 252.707031 96.398438 254.183594 97.492188 C 255.65625 98.585938 257.101562 99.71875 258.523438 100.882812 C 259.941406 102.046875 261.332031 103.246094 262.691406 104.480469 C 264.050781 105.714844 265.378906 106.980469 266.679688 108.28125 C 267.976562 109.578125 269.242188 110.910156 270.476562 112.269531 C 271.707031 113.632812 272.90625 115.023438 274.070312 116.441406 C 275.234375 117.863281 276.367188 119.3125 277.457031 120.785156 C 278.550781 122.261719 279.609375 123.761719 280.628906 125.292969 C 281.648438 126.820312 282.632812 128.371094 283.574219 129.945312 C 284.519531 131.523438 285.421875 133.121094 286.289062 134.738281 C 287.152344 136.359375 287.980469 138 288.765625 139.660156 C 289.550781 141.320312 290.292969 143 290.996094 144.699219 C 291.699219 146.394531 292.359375 148.109375 292.976562 149.839844 C 293.59375 151.570312 294.171875 153.3125 294.703125 155.070312 C 295.238281 156.828125 295.726562 158.597656 296.171875 160.378906 C 296.617188 162.164062 297.019531 163.953125 297.378906 165.757812 C 297.738281 167.558594 298.050781 169.367188 298.320312 171.183594 C 298.589844 173.003906 298.8125 174.824219 298.992188 176.652344 C 299.175781 178.480469 299.308594 180.3125 299.398438 182.148438 C 299.488281 183.984375 299.535156 185.820312 299.535156 187.65625 Z M 299.535156 187.65625 " fill-opacity="1" fill-rule="nonzero"/><path fill="#cedeeb" d="M 187.359375 301.992188 C 124.355469 301.992188 73.101562 250.703125 73.101562 187.65625 C 73.101562 124.609375 124.355469 73.316406 187.359375 73.316406 C 250.363281 73.316406 301.617188 124.609375 301.617188 187.65625 C 301.617188 250.703125 250.363281 301.992188 187.359375 301.992188 Z M 187.359375 77.484375 C 126.65625 77.484375 77.265625 126.90625 77.265625 187.65625 C 77.265625 248.40625 126.65625 297.824219 187.359375 297.824219 C 248.0625 297.824219 297.453125 248.40625 297.453125 187.65625 C 297.453125 126.90625 248.0625 77.484375 187.359375 77.484375 Z M 187.359375 77.484375 " fill-opacity="1" fill-rule="nonzero"/><g clip-path="url(#139cd80717)"><path fill="#8c3839" d="M 254.023438 187.40625 C 254.023438 188.496094 253.996094 189.585938 253.941406 190.671875 C 253.886719 191.761719 253.808594 192.847656 253.699219 193.933594 C 253.59375 195.019531 253.460938 196.101562 253.300781 197.179688 C 253.140625 198.257812 252.953125 199.332031 252.742188 200.402344 C 252.527344 201.46875 252.289062 202.535156 252.023438 203.589844 C 251.761719 204.648438 251.46875 205.699219 251.152344 206.742188 C 250.835938 207.785156 250.496094 208.820312 250.128906 209.847656 C 249.761719 210.875 249.367188 211.890625 248.949219 212.898438 C 248.535156 213.90625 248.09375 214.902344 247.625 215.886719 C 247.160156 216.871094 246.667969 217.847656 246.15625 218.808594 C 245.640625 219.769531 245.105469 220.71875 244.542969 221.652344 C 243.984375 222.589844 243.402344 223.507812 242.792969 224.414062 C 242.1875 225.320312 241.5625 226.210938 240.910156 227.089844 C 240.261719 227.964844 239.59375 228.824219 238.898438 229.667969 C 238.207031 230.507812 237.496094 231.335938 236.765625 232.140625 C 236.03125 232.949219 235.28125 233.738281 234.511719 234.511719 C 233.738281 235.28125 232.949219 236.03125 232.140625 236.765625 C 231.335938 237.496094 230.507812 238.207031 229.667969 238.898438 C 228.824219 239.59375 227.964844 240.261719 227.089844 240.910156 C 226.210938 241.5625 225.320312 242.1875 224.414062 242.792969 C 223.507812 243.402344 222.589844 243.984375 221.652344 244.542969 C 220.71875 245.105469 219.769531 245.640625 218.808594 246.15625 C 217.847656 246.667969 216.871094 247.160156 215.886719 247.625 C 214.902344 248.09375 213.90625 248.535156 212.898438 248.949219 C 211.890625 249.367188 210.875 249.761719 209.847656 250.128906 C 208.820312 250.496094 207.785156 250.835938 206.742188 251.152344 C 205.699219 251.46875 204.648438 251.761719 203.589844 252.023438 C 202.535156 252.289062 201.46875 252.527344 200.402344 252.742188 C 199.332031 252.953125 198.257812 253.140625 197.179688 253.300781 C 196.101562 253.460938 195.019531 253.59375 193.933594 253.699219 C 192.847656 253.808594 191.761719 253.886719 190.671875 253.941406 C 189.585938 253.996094 188.496094 254.023438 187.40625 254.023438 C 186.316406 254.023438 185.226562 253.996094 184.136719 253.941406 C 183.046875 253.886719 181.960938 253.808594 180.875 253.699219 C 179.789062 253.59375 178.707031 253.460938 177.628906 253.300781 C 176.550781 253.140625 175.476562 252.953125 174.410156 252.742188 C 173.339844 252.527344 172.277344 252.289062 171.21875 252.023438 C 170.160156 251.761719 169.109375 251.46875 168.066406 251.152344 C 167.023438 250.835938 165.988281 250.496094 164.960938 250.128906 C 163.9375 249.761719 162.917969 249.367188 161.910156 248.949219 C 160.90625 248.535156 159.90625 248.09375 158.921875 247.625 C 157.9375 247.160156 156.964844 246.667969 156.003906 246.15625 C 155.039062 245.640625 154.09375 245.105469 153.15625 244.542969 C 152.222656 243.984375 151.300781 243.402344 150.394531 242.792969 C 149.488281 242.1875 148.597656 241.5625 147.722656 240.910156 C 146.84375 240.261719 145.988281 239.59375 145.144531 238.898438 C 144.300781 238.207031 143.476562 237.496094 142.667969 236.765625 C 141.859375 236.03125 141.070312 235.28125 140.300781 234.511719 C 139.527344 233.738281 138.777344 232.949219 138.046875 232.140625 C 137.3125 231.335938 136.601562 230.507812 135.910156 229.667969 C 135.21875 228.824219 134.546875 227.964844 133.898438 227.089844 C 133.25 226.210938 132.621094 225.320312 132.015625 224.414062 C 131.410156 223.507812 130.828125 222.589844 130.265625 221.652344 C 129.707031 220.71875 129.167969 219.769531 128.652344 218.808594 C 128.140625 217.847656 127.648438 216.871094 127.183594 215.886719 C 126.71875 214.902344 126.277344 213.90625 125.859375 212.898438 C 125.441406 211.890625 125.050781 210.875 124.683594 209.847656 C 124.316406 208.820312 123.972656 207.785156 123.65625 206.742188 C 123.339844 205.699219 123.050781 204.648438 122.785156 203.589844 C 122.519531 202.535156 122.28125 201.46875 122.066406 200.402344 C 121.855469 199.332031 121.667969 198.257812 121.507812 197.179688 C 121.347656 196.101562 121.214844 195.019531 121.109375 193.933594 C 121.003906 192.847656 120.921875 191.761719 120.867188 190.671875 C 120.816406 189.585938 120.789062 188.496094 120.789062 187.40625 C 120.789062 186.316406 120.816406 185.226562 120.867188 184.136719 C 120.921875 183.046875 121.003906 181.960938 121.109375 180.875 C 121.214844 179.789062 121.347656 178.707031 121.507812 177.628906 C 121.667969 176.550781 121.855469 175.476562 122.066406 174.410156 C 122.28125 173.339844 122.519531 172.277344 122.785156 171.21875 C 123.050781 170.160156 123.339844 169.109375 123.65625 168.066406 C 123.972656 167.023438 124.316406 165.988281 124.683594 164.960938 C 125.050781 163.9375 125.441406 162.917969 125.859375 161.910156 C 126.277344 160.90625 126.71875 159.90625 127.183594 158.921875 C 127.648438 157.9375 128.140625 156.964844 128.652344 156.003906 C 129.167969 155.039062 129.707031 154.09375 130.265625 153.15625 C 130.828125 152.222656 131.410156 151.300781 132.015625 150.394531 C 132.621094 149.488281 133.25 148.597656 133.898438 147.722656 C 134.546875 146.84375 135.21875 145.988281 135.910156 145.144531 C 136.601562 144.300781 137.3125 143.476562 138.046875 142.667969 C 138.777344 141.859375 139.527344 141.070312 140.300781 140.300781 C 141.070312 139.527344 141.859375 138.777344 142.667969 138.046875 C 143.476562 137.3125 144.300781 136.601562 145.144531 135.910156 C 145.988281 135.21875 146.84375 134.546875 147.722656 133.898438 C 148.597656 133.25 149.488281 132.621094 150.394531 132.015625 C 151.300781 131.410156 152.222656 130.828125 153.15625 130.265625 C 154.09375 129.707031 155.039062 129.167969 156.003906 128.652344 C 156.964844 128.140625 157.9375 127.648438 158.921875 127.183594 C 159.90625 126.71875 160.90625 126.277344 161.910156 125.859375 C 162.917969 125.441406 163.9375 125.050781 164.960938 124.683594 C 165.988281 124.316406 167.023438 123.972656 168.066406 123.65625 C 169.109375 123.339844 170.160156 123.050781 171.21875 122.785156 C 172.277344 122.519531 173.339844 122.28125 174.410156 122.066406 C 175.476562 121.855469 176.550781 121.667969 177.628906 121.507812 C 178.707031 121.347656 179.789062 121.214844 180.875 121.109375 C 181.960938 121.003906 183.046875 120.921875 184.136719 120.867188 C 185.226562 120.816406 186.316406 120.789062 187.40625 120.789062 C 188.496094 120.789062 189.585938 120.816406 190.671875 120.867188 C 191.761719 120.921875 192.847656 121.003906 193.933594 121.109375 C 195.019531 121.214844 196.101562 121.347656 197.179688 121.507812 C 198.257812 121.667969 199.332031 121.855469 200.402344 122.066406 C 201.46875 122.28125 202.535156 122.519531 203.589844 122.785156 C 204.648438 123.050781 205.699219 123.339844 206.742188 123.65625 C 207.785156 123.972656 208.820312 124.316406 209.847656 124.683594 C 210.875 125.050781 211.890625 125.441406 212.898438 125.859375 C 213.90625 126.277344 214.902344 126.71875 215.886719 127.183594 C 216.871094 127.648438 217.847656 128.140625 218.808594 128.652344 C 219.769531 129.167969 220.71875 129.707031 221.652344 130.265625 C 222.589844 130.828125 223.507812 131.410156 224.414062 132.015625 C 225.320312 132.621094 226.210938 133.25 227.089844 133.898438 C 227.964844 134.546875 228.824219 135.21875 229.667969 135.910156 C 230.507812 136.601562 231.335938 137.3125 232.140625 138.046875 C 232.949219 138.777344 233.738281 139.527344 234.511719 140.300781 C 235.28125 141.070312 236.03125 141.859375 236.765625 142.667969 C 237.496094 143.476562 238.207031 144.300781 238.898438 145.144531 C 239.59375 145.988281 240.261719 146.84375 240.910156 147.722656 C 241.5625 148.597656 242.1875 149.488281 242.792969 150.394531 C 243.402344 151.300781 243.984375 152.222656 244.542969 153.15625 C 245.105469 154.09375 245.640625 155.039062 246.15625 156.003906 C 246.667969 156.964844 247.160156 157.9375 247.625 158.921875 C 248.09375 159.90625 248.535156 160.90625 248.949219 161.910156 C 249.367188 162.917969 249.761719 163.9375 250.128906 164.960938 C 250.496094 165.988281 250.835938 167.023438 251.152344 168.066406 C 251.46875 169.109375 251.761719 170.160156 252.023438 171.21875 C 252.289062 172.277344 252.527344 173.339844 252.742188 174.410156 C 252.953125 175.476562 253.140625 176.550781 253.300781 177.628906 C 253.460938 178.707031 253.59375 179.789062 253.699219 180.875 C 253.808594 181.960938 253.886719 183.046875 253.941406 184.136719 C 253.996094 185.226562 254.023438 186.316406 254.023438 187.40625 Z M 254.023438 187.40625 " fill-opacity="1" fill-rule="nonzero"/><path fill="#cedeeb" d="M 187.40625 254.15625 C 169.578125 254.15625 152.816406 247.199219 140.214844 234.597656 C 127.609375 221.992188 120.65625 205.230469 120.65625 187.40625 C 120.65625 169.578125 127.609375 152.816406 140.214844 140.214844 C 152.816406 127.609375 169.578125 120.65625 187.40625 120.65625 C 205.230469 120.65625 221.992188 127.609375 234.597656 140.214844 C 247.199219 152.816406 254.15625 169.578125 254.15625 187.40625 C 254.15625 205.230469 247.199219 221.992188 234.597656 234.597656 C 221.992188 247.199219 205.230469 254.15625 187.40625 254.15625 Z M 187.40625 124.652344 C 170.644531 124.652344 154.894531 131.179688 143.039062 143.039062 C 131.179688 154.894531 124.652344 170.644531 124.652344 187.40625 C 124.652344 204.164062 131.179688 219.914062 143.039062 231.773438 C 154.894531 243.628906 170.644531 250.15625 187.40625 250.15625 C 204.164062 250.15625 219.914062 243.628906 231.773438 231.773438 C 243.628906 219.914062 250.15625 204.164062 250.15625 187.40625 C 250.15625 170.644531 243.628906 154.894531 231.773438 143.039062 C 219.914062 131.179688 204.164062 124.652344 187.40625 124.652344 Z M 187.40625 124.652344 " fill-opacity="1" fill-rule="nonzero"/></g><g fill="#cedeeb" fill-opacity="1"><g transform="translate(107.624521, 168.633687)"><g><path d="M 8.449219 -19.203125 L 9.304688 -21.144531 L -12.429688 -25.550781 L 0.808594 -12.445312 L -17.796875 -13.351562 L 0.121094 -0.273438 L 0.988281 -2.242188 L -10.988281 -10.941406 L 5.8125 -10.242188 L -6.066406 -22.128906 Z M 8.449219 -19.203125 "/></g></g></g><g fill="#cedeeb" fill-opacity="1"><g transform="translate(116.212597, 149.211216)"><g><path d="M -2.667969 -8.902344 L -7.9375 -17.476562 L 1.753906 -14.8125 Z M 10.871094 -14.523438 L -11.863281 -20.414062 L 0.179688 -0.238281 L 1.539062 -2.058594 L -1.578125 -7.117188 L 3.773438 -14.273438 L 9.507812 -12.707031 Z M 10.871094 -14.523438 "/></g></g></g><g fill="#cedeeb" fill-opacity="1"><g transform="translate(125.993229, 135.854528)"><g><path d="M 11.121094 -9.9375 L 13.039062 -11.648438 L 0.941406 -14.46875 L -0.503906 -26.804688 L -2.421875 -25.09375 L -1.015625 -14.726562 L -11.15625 -17.285156 L -13.097656 -15.554688 L -0.957031 -12.734375 L 0.46875 -0.417969 L 2.382812 -2.128906 L 0.976562 -12.496094 Z M 11.121094 -9.9375 "/></g></g></g><g fill="#cedeeb" fill-opacity="1"><g transform="translate(138.140851, 124.919767)"><g><path d="M -1.511719 -10.859375 L -5.78125 -17.917969 L -1.742188 -20.363281 C -0.695312 -20.996094 0.347656 -21.175781 1.375 -20.921875 C 2.390625 -20.628906 3.21875 -20.011719 3.839844 -18.992188 C 4.472656 -17.941406 4.652344 -16.898438 4.40625 -15.804688 C 4.144531 -14.738281 3.527344 -13.910156 2.527344 -13.304688 Z M 5.660156 -20.023438 C 4.730469 -21.558594 3.410156 -22.46875 1.730469 -22.816406 C 0.0703125 -23.136719 -1.503906 -22.847656 -3.035156 -21.921875 L -8.609375 -18.546875 L 1.917969 -1.160156 L 3.707031 -2.246094 L -0.457031 -9.121094 L 3.324219 -11.414062 C 4.859375 -12.34375 5.871094 -13.617188 6.328125 -15.222656 C 6.785156 -16.894531 6.589844 -18.488281 5.660156 -20.023438 Z M 5.660156 -20.023438 "/></g></g></g><g fill="#cedeeb" fill-opacity="1"><g transform="translate(150.153857, 117.453548)"><g><path d="M 0.410156 -10.929688 L -2.582031 -18.648438 L 1.820312 -20.355469 C 2.964844 -20.796875 4.023438 -20.792969 5 -20.339844 C 5.949219 -19.875 6.660156 -19.121094 7.089844 -18.007812 C 7.523438 -16.890625 7.515625 -15.832031 7.085938 -14.800781 C 6.652344 -13.765625 5.902344 -13.058594 4.8125 -12.636719 Z M 9.050781 -18.734375 C 8.425781 -20.351562 7.273438 -21.507812 5.679688 -22.140625 C 4.128906 -22.757812 2.492188 -22.761719 0.820312 -22.113281 L -5.257812 -19.757812 L 2.089844 -0.808594 L 4.039062 -1.566406 L 1.132812 -9.0625 L 3.390625 -9.9375 L 11.871094 -4.601562 L 14.492188 -5.617188 L 5.734375 -10.84375 C 7.175781 -11.5 8.226562 -12.515625 8.878906 -13.890625 C 9.628906 -15.433594 9.699219 -17.0625 9.050781 -18.734375 Z M 9.050781 -18.734375 "/></g></g></g><g fill="#cedeeb" fill-opacity="1"><g transform="translate(163.229191, 111.722267)"><g><path d="M 18.351562 -13.167969 C 18.707031 -10.867188 18.179688 -8.789062 16.832031 -6.949219 C 15.457031 -5.074219 13.628906 -3.976562 11.355469 -3.625 C 9.082031 -3.273438 7.007812 -3.769531 5.164062 -5.148438 C 3.292969 -6.496094 2.195312 -8.320312 1.839844 -10.625 C 1.496094 -12.871094 1.992188 -14.941406 3.367188 -16.816406 C 4.714844 -18.660156 6.539062 -19.785156 8.8125 -20.136719 C 11.085938 -20.488281 13.164062 -19.960938 15.035156 -18.617188 C 16.878906 -17.238281 18.007812 -15.414062 18.351562 -13.167969 Z M 20.421875 -13.488281 C 20.203125 -14.90625 19.703125 -16.191406 18.976562 -17.378906 C 18.253906 -18.535156 17.34375 -19.515625 16.253906 -20.316406 C 15.167969 -21.085938 13.960938 -21.65625 12.640625 -21.996094 C 11.285156 -22.332031 9.910156 -22.421875 8.492188 -22.203125 C 7.074219 -21.984375 5.761719 -21.480469 4.605469 -20.757812 C 3.445312 -20.035156 2.464844 -19.128906 1.660156 -18.066406 C 0.863281 -16.976562 0.292969 -15.769531 -0.046875 -14.449219 C -0.382812 -13.09375 -0.445312 -11.726562 -0.226562 -10.308594 C -0.0078125 -8.890625 0.464844 -7.570312 1.1875 -6.414062 C 1.917969 -5.222656 2.824219 -4.246094 3.914062 -3.445312 C 5.003906 -2.644531 6.210938 -2.074219 7.535156 -1.734375 C 8.855469 -1.394531 10.257812 -1.339844 11.675781 -1.554688 C 13.09375 -1.773438 14.382812 -2.246094 15.570312 -2.972656 C 16.726562 -3.695312 17.707031 -4.601562 18.507812 -5.695312 C 19.304688 -6.785156 19.875 -7.992188 20.210938 -9.34375 C 20.554688 -10.664062 20.640625 -12.070312 20.421875 -13.488281 Z M 20.421875 -13.488281 "/></g></g></g><g fill="#cedeeb" fill-opacity="1"><g transform="translate(184.928372, 108.908423)"><g/></g></g><g fill="#cedeeb" fill-opacity="1"><g transform="translate(191.726922, 108.670259)"><g><path d="M 14.148438 2.191406 L 14.445312 0.269531 L 4.578125 -1.257812 L 5.6875 -8.402344 L 15.257812 -6.921875 L 15.558594 -8.871094 L 5.988281 -10.351562 L 7.097656 -17.5 L 16.960938 -15.972656 L 17.257812 -17.894531 L 5.324219 -19.742188 L 2.214844 0.34375 Z M 14.148438 2.191406 "/></g></g></g><g fill="#cedeeb" fill-opacity="1"><g transform="translate(206.364265, 110.697372)"><g><path d="M 9.101562 -12.65625 L 14.417969 6.460938 L 21.652344 -13.867188 L 19.679688 -14.570312 L 14.671875 -0.488281 L 9.355469 -19.605469 L 2.113281 0.75 L 4.082031 1.453125 Z M 9.101562 -12.65625 "/></g></g></g><g fill="#cedeeb" fill-opacity="1"><g transform="translate(221.53816, 115.50186)"><g><path d="M 23.90625 3.996094 L 14.988281 -1.699219 L 14.007812 -0.164062 L 20.960938 4.277344 C 19.480469 5.425781 17.828125 6.070312 16.003906 6.148438 C 14.167969 6.25 12.480469 5.777344 10.945312 4.796875 C 8.980469 3.539062 7.753906 1.796875 7.253906 -0.472656 C 6.777344 -2.726562 7.175781 -4.847656 8.417969 -6.789062 C 9.65625 -8.726562 11.398438 -9.953125 13.667969 -10.453125 C 15.898438 -10.945312 18.007812 -10.589844 19.972656 -9.332031 C 21.433594 -8.398438 22.496094 -7.121094 23.148438 -5.53125 C 23.828125 -3.929688 23.992188 -2.296875 23.660156 -0.558594 L 25.523438 0.632812 C 26.152344 -1.628906 26.035156 -3.828125 25.210938 -5.984375 C 24.390625 -8.144531 22.964844 -9.90625 20.925781 -11.210938 C 19.816406 -11.917969 18.570312 -12.359375 17.226562 -12.578125 C 15.851562 -12.820312 14.519531 -12.785156 13.195312 -12.492188 C 11.875 -12.203125 10.652344 -11.671875 9.523438 -10.90625 C 8.375 -10.113281 7.410156 -9.097656 6.636719 -7.890625 C 5.863281 -6.679688 5.351562 -5.375 5.128906 -4.03125 C 4.890625 -2.65625 4.925781 -1.324219 5.214844 0 C 5.507812 1.320312 6.035156 2.542969 6.828125 3.691406 C 7.597656 4.820312 8.609375 5.785156 9.820312 6.558594 C 11.882812 7.878906 14.167969 8.414062 16.683594 8.140625 C 19.214844 7.84375 21.339844 6.789062 23.054688 4.941406 Z M 23.90625 3.996094 "/></g></g></g><g fill="#cedeeb" fill-opacity="1"><g transform="translate(239.652109, 127.520702)"><g><path d="M 4.578125 1.488281 L 17.1875 -11.679688 L 15.675781 -13.128906 L 1.617188 1.550781 L 2.375 2.273438 L 3.128906 2.996094 L 8.375 8.019531 L 9.824219 6.507812 Z M 4.578125 1.488281 "/></g></g></g><g fill="#cedeeb" fill-opacity="1"><g transform="translate(247.671739, 135.325571)"><g><path d="M 2.808594 3.300781 L 18.289062 -9.867188 L 16.933594 -11.460938 L 1.453125 1.707031 Z M 2.808594 3.300781 "/></g></g></g><g fill="#cedeeb" fill-opacity="1"><g transform="translate(251.45597, 139.128393)"><g><path d="M 12.300781 1.386719 C 13.207031 3.9375 13.605469 5.816406 13.476562 7.039062 C 13.382812 7.882812 12.984375 8.535156 12.28125 8.988281 C 11.578125 9.445312 10.90625 9.667969 10.308594 9.628906 C 8.769531 9.558594 7.363281 8.546875 6.125 6.640625 C 4.402344 3.984375 4.328125 1.894531 5.921875 0.398438 L 4.589844 -1.660156 C 2.09375 0.8125 2.082031 3.921875 4.523438 7.683594 C 5.613281 9.363281 6.875 10.539062 8.359375 11.179688 C 10.113281 11.964844 11.875 11.820312 13.578125 10.714844 C 14.980469 9.804688 15.703125 8.550781 15.738281 6.960938 C 15.785156 5.824219 15.472656 4.246094 14.804688 2.222656 C 14.117188 0.175781 13.757812 -1.195312 13.695312 -1.902344 C 13.523438 -3.429688 13.949219 -4.527344 15.019531 -5.183594 C 15.570312 -5.542969 16.113281 -5.75 16.625 -5.730469 C 18.027344 -5.710938 19.277344 -4.882812 20.351562 -3.230469 C 21.863281 -0.898438 21.972656 0.921875 20.746094 2.214844 L 21.984375 4.121094 C 24.035156 1.898438 24.003906 -0.894531 21.855469 -4.203125 C 20.878906 -5.707031 19.617188 -6.777344 18.097656 -7.359375 C 16.5625 -7.96875 15.011719 -7.78125 13.40625 -6.738281 C 11.222656 -5.324219 10.859375 -2.59375 12.300781 1.386719 Z M 12.300781 1.386719 "/></g></g></g><g fill="#cedeeb" fill-opacity="1"><g transform="translate(259.984921, 151.886273)"><g><path d="M 1.625 4.015625 L 10.046875 0.609375 L 13.511719 9.167969 L 5.089844 12.578125 L 5.875 14.515625 L 24.714844 6.890625 L 23.929688 4.953125 L 15.453125 8.382812 L 11.988281 -0.175781 L 20.464844 -3.609375 L 19.679688 -5.546875 L 0.839844 2.078125 Z M 1.625 4.015625 "/></g></g></g><g fill="#cedeeb" fill-opacity="1"><g transform="translate(87.311434, 214.079677)"><g><path d="M 0.269531 0.605469 L 1.015625 2.273438 L 4.4375 1.992188 L 7.109375 7.96875 L 4.617188 10.332031 L 5.351562 11.96875 L 16.6875 0.8125 L 16.160156 -0.363281 Z M 6.0625 1.878906 L 14.183594 1.238281 L 8.273438 6.824219 Z M 6.0625 1.878906 "/></g></g></g><g fill="#cedeeb" fill-opacity="1"><g transform="translate(93.334303, 227.298613)"><g><path d="M -3.007812 3.9375 L -2.183594 5.289062 L 2.984375 2.132812 C 2.457031 3.296875 2.550781 4.585938 3.257812 5.746094 C 4.730469 8.160156 7.628906 8.109375 10.175781 6.554688 C 12.75 4.980469 14.089844 2.433594 12.617188 0.0234375 C 11.878906 -1.183594 10.75 -1.804688 9.527344 -1.859375 L 10.75 -2.609375 L 9.929688 -3.957031 Z M 4.21875 4.765625 C 3.101562 2.9375 4.347656 1.128906 6.183594 0.0078125 C 8 -1.101562 10.195312 -1.390625 11.3125 0.4375 C 12.410156 2.238281 11.171875 4.09375 9.351562 5.203125 C 7.515625 6.324219 5.316406 6.566406 4.21875 4.765625 Z M 4.21875 4.765625 "/></g></g></g><g fill="#cedeeb" fill-opacity="1"><g transform="translate(99.944919, 237.898537)"><g><path d="M 1.070312 1.410156 L 2.007812 2.648438 L 6.199219 -0.53125 C 8.226562 -2.066406 10.035156 -2.074219 11.117188 -0.648438 C 11.417969 -0.25 11.601562 0.164062 11.574219 0.621094 L 13.0625 0.328125 C 13.070312 -0.167969 12.910156 -0.777344 12.472656 -1.355469 C 11.667969 -2.414062 10.285156 -2.914062 8.929688 -2.574219 L 10.414062 -3.703125 L 9.464844 -4.953125 Z M 1.070312 1.410156 "/></g></g></g><g fill="#cedeeb" fill-opacity="1"><g transform="translate(105.325205, 245.049773)"><g><path d="M 3.757812 4.296875 C 4.902344 5.535156 6.074219 6.089844 7.699219 6.140625 L 7.605469 4.765625 C 6.40625 4.753906 5.589844 4.242188 4.765625 3.351562 C 3.375 1.839844 3.867188 -0.0234375 5.253906 -1.285156 L 10.230469 4.109375 C 10.382812 3.996094 10.660156 3.785156 10.863281 3.597656 C 12.648438 1.953125 13.925781 -0.65625 11.609375 -3.171875 C 9.535156 -5.417969 6.558594 -4.742188 4.480469 -2.824219 C 2.371094 -0.882812 1.585938 1.9375 3.757812 4.296875 Z M 6.199219 -2.160156 C 7.578125 -3.3125 9.347656 -3.710938 10.65625 -2.292969 C 12.121094 -0.703125 11.402344 0.992188 10.191406 2.167969 Z M 6.199219 -2.160156 "/></g></g></g><g fill="#cedeeb" fill-opacity="1"><g transform="translate(113.204949, 253.583126)"><g><path d="M 1.339844 1.160156 L 2.527344 2.1875 L 6.109375 -1.953125 C 7.820312 -3.933594 9.667969 -4.050781 10.917969 -2.96875 C 12.324219 -1.753906 11.625 -0.125 10.671875 0.976562 L 6.589844 5.699219 L 7.769531 6.71875 L 11.957031 1.878906 C 13.476562 0.121094 14.011719 -2.0625 12.113281 -3.703125 C 10.957031 -4.703125 9.554688 -4.871094 8.21875 -4.394531 L 9.421875 -5.78125 L 8.230469 -6.808594 Z M 1.339844 1.160156 "/></g></g></g><g fill="#cedeeb" fill-opacity="1"><g transform="translate(122.680959, 261.728177)"><g><path d="M 15.421875 -7.554688 L 12.167969 -2.753906 C 12.160156 -3.980469 11.640625 -5.109375 10.363281 -5.972656 C 8.136719 -7.480469 5.488281 -6.296875 3.796875 -3.796875 C 2.109375 -1.308594 1.984375 1.601562 4.222656 3.113281 C 5.539062 4.007812 6.757812 4.015625 7.894531 3.578125 L 7.101562 4.808594 L 8.367188 5.664062 L 16.722656 -6.671875 Z M 5.300781 2.238281 C 3.550781 1.054688 3.925781 -1.113281 5.132812 -2.894531 C 6.324219 -4.65625 8.210938 -5.824219 9.960938 -4.644531 C 11.742188 -3.4375 11.320312 -1.273438 10.125 0.488281 C 8.914062 2.277344 7.082031 3.445312 5.300781 2.238281 Z M 5.300781 2.238281 "/></g></g></g><g fill="#cedeeb" fill-opacity="1"><g transform="translate(133.128729, 268.722022)"><g><path d="M 4.988281 2.773438 C 6.484375 3.554688 7.773438 3.683594 9.320312 3.183594 L 8.769531 1.917969 C 7.632812 2.3125 6.695312 2.105469 5.617188 1.546875 C 3.796875 0.59375 3.632812 -1.324219 4.511719 -2.984375 L 11.015625 0.417969 C 11.125 0.257812 11.3125 -0.0351562 11.441406 -0.277344 C 12.5625 -2.429688 12.886719 -5.320312 9.855469 -6.902344 C 7.148438 -8.320312 4.574219 -6.675781 3.265625 -4.171875 C 1.933594 -1.628906 2.148438 1.289062 4.988281 2.773438 Z M 5.109375 -4.125 C 6.015625 -5.675781 7.546875 -6.648438 9.257812 -5.753906 C 11.171875 -4.75 11.066406 -2.914062 10.324219 -1.398438 Z M 5.109375 -4.125 "/></g></g></g><g fill="#cedeeb" fill-opacity="1"><g transform="translate(143.312778, 273.904244)"><g/></g></g><g fill="#cedeeb" fill-opacity="1"><g transform="translate(148.86497, 276.226574)"><g><path d="M 5.933594 -11.550781 L 7.621094 -10.945312 L 8.308594 -12.851562 L 6.621094 -13.457031 Z M 1.6875 0.605469 L 3.15625 1.132812 L 6.722656 -8.78125 L 5.25 -9.308594 Z M 1.6875 0.605469 "/></g></g></g><g fill="#cedeeb" fill-opacity="1"><g transform="translate(154.136009, 278.249977)"><g><path d="M 1.710938 0.457031 L 3.230469 0.863281 L 4.640625 -4.425781 C 5.316406 -6.953125 6.925781 -7.867188 8.523438 -7.4375 C 10.320312 -6.960938 10.402344 -5.191406 10.027344 -3.785156 L 8.417969 2.246094 L 9.925781 2.648438 L 11.578125 -3.535156 C 12.175781 -5.777344 11.703125 -7.976562 9.277344 -8.625 C 7.800781 -9.019531 6.464844 -8.558594 5.476562 -7.542969 L 5.949219 -9.316406 L 4.429688 -9.722656 Z M 1.710938 0.457031 "/></g></g></g><g fill="#cedeeb" fill-opacity="1"><g transform="translate(166.191218, 281.401117)"><g><path d="M 5.699219 -0.523438 C 4.25 -0.953125 2.992188 -1.460938 3.152344 -2.535156 C 3.203125 -2.878906 3.417969 -3.101562 3.722656 -3.269531 C 4.253906 -2.902344 4.898438 -2.648438 5.617188 -2.539062 C 7.777344 -2.214844 9.667969 -3.308594 10.003906 -5.550781 C 10.09375 -6.167969 10.046875 -6.761719 9.871094 -7.296875 L 11.746094 -8.371094 L 11.027344 -9.609375 L 9.25 -8.425781 C 8.671875 -9.132812 7.789062 -9.636719 6.703125 -9.800781 C 4.511719 -10.128906 2.585938 -8.945312 2.257812 -6.734375 C 2.113281 -5.773438 2.316406 -4.921875 2.777344 -4.222656 C 2.105469 -3.800781 1.847656 -3.222656 1.757812 -2.617188 C 1.597656 -1.550781 2.054688 -0.824219 2.761719 -0.28125 L 1.03125 1.007812 C 0.988281 1.152344 0.960938 1.273438 0.941406 1.398438 C 0.644531 3.382812 2.195312 5.214844 4.90625 5.621094 C 7.097656 5.949219 9.230469 5.222656 9.554688 3.074219 C 9.90625 0.714844 7.773438 0.078125 5.699219 -0.523438 Z M 6.5 -8.570312 C 7.917969 -8.359375 8.644531 -7.152344 8.445312 -5.835938 C 8.234375 -4.429688 7.199219 -3.625 5.789062 -3.835938 C 4.382812 -4.046875 3.636719 -5.117188 3.847656 -6.527344 C 4.035156 -7.800781 5.082031 -8.785156 6.5 -8.570312 Z M 5.238281 4.261719 C 3.214844 3.957031 2.226562 2.722656 2.375 1.644531 L 3.832031 0.328125 C 4.21875 0.515625 4.636719 0.652344 5.035156 0.785156 C 6.773438 1.355469 8.347656 1.644531 8.148438 2.980469 C 7.980469 4.117188 6.613281 4.46875 5.238281 4.261719 Z M 5.238281 4.261719 "/></g></g></g><g fill="#cedeeb" fill-opacity="1"><g transform="translate(177.352176, 282.944764)"><g><path d="M 3.917969 -0.894531 C 3.445312 -0.929688 3.441406 -1.5 3.445312 -1.53125 L 4.335938 -14.640625 L 2.746094 -14.75 L 1.878906 -2.007812 C 1.792969 -0.746094 1.835938 0.335938 3.425781 0.445312 C 3.964844 0.480469 4.515625 0.414062 4.863281 0.332031 L 4.949219 -0.933594 C 4.714844 -0.90625 4.289062 -0.871094 3.917969 -0.894531 Z M 3.917969 -0.894531 "/></g></g></g><g fill="#cedeeb" fill-opacity="1"><g transform="translate(183.275834, 283.440352)"><g><path d="M 4.234375 -11.914062 L 5.640625 -11.933594 L 8.519531 -15.019531 L 6.484375 -14.992188 Z M 5.707031 0.0703125 C 7.394531 0.046875 8.589844 -0.453125 9.714844 -1.628906 L 8.625 -2.480469 C 7.816406 -1.59375 6.890625 -1.328125 5.679688 -1.3125 C 3.621094 -1.285156 2.566406 -2.894531 2.550781 -4.769531 L 9.890625 -4.871094 C 9.910156 -5.0625 9.9375 -5.410156 9.933594 -5.683594 C 9.898438 -8.109375 8.808594 -10.804688 5.390625 -10.757812 C 2.332031 -10.714844 0.851562 -8.050781 0.890625 -5.222656 C 0.929688 -2.355469 2.5 0.113281 5.707031 0.0703125 Z M 2.535156 -6.058594 C 2.59375 -7.851562 3.480469 -9.433594 5.410156 -9.460938 C 7.570312 -9.492188 8.351562 -7.824219 8.417969 -6.136719 Z M 2.535156 -6.058594 "/></g></g></g><g fill="#cedeeb" fill-opacity="1"><g transform="translate(194.804022, 283.209892)"><g><path d="M 4.6875 -0.320312 C 6.5 -0.527344 8.164062 -1.769531 7.917969 -3.925781 C 7.480469 -7.773438 1.976562 -5.863281 1.699219 -8.273438 C 1.601562 -9.132812 2.238281 -9.796875 3.371094 -9.925781 C 4.492188 -10.054688 5.320312 -9.574219 5.875 -8.714844 L 6.953125 -9.507812 C 6.171875 -10.679688 4.890625 -11.386719 3.277344 -11.199219 C 1.496094 -10.996094 0.0703125 -9.804688 0.285156 -7.917969 C 0.691406 -4.367188 6.097656 -6.382812 6.417969 -3.566406 C 6.546875 -2.433594 5.746094 -1.738281 4.5625 -1.601562 C 3.15625 -1.441406 2.21875 -2.226562 1.726562 -3.296875 L 0.484375 -2.464844 C 1.125 -1.136719 2.71875 -0.0976562 4.6875 -0.320312 Z M 4.6875 -0.320312 "/></g></g></g><g fill="#cedeeb" fill-opacity="1"><g transform="translate(204.315445, 282.045563)"><g/></g></g><g fill="#cedeeb" fill-opacity="1"><g transform="translate(210.412182, 280.977381)"><g><path d="M 4.132812 -0.921875 C 5.578125 -1.320312 6.78125 -2.34375 7.105469 -4.074219 L 7.675781 -2.117188 L 8.96875 -2.476562 L 7.246094 -8.707031 C 6.566406 -11.179688 4.710938 -12.460938 2.128906 -11.746094 C 0.453125 -11.285156 -0.585938 -10.210938 -1.152344 -8.695312 L 0.191406 -8.140625 C 0.488281 -8.976562 1.132812 -10.050781 2.585938 -10.453125 C 4.425781 -10.960938 5.445312 -9.808594 5.972656 -7.894531 L 3.652344 -7.257812 C 0.765625 -6.460938 -0.558594 -5.074219 0.00390625 -3.042969 C 0.53125 -1.132812 2.222656 -0.394531 4.132812 -0.921875 Z M 3.953125 -2.25 C 2.894531 -1.957031 1.914062 -2.222656 1.578125 -3.433594 C 1.207031 -4.785156 2.101562 -5.589844 4.113281 -6.144531 L 6.289062 -6.746094 C 6.742188 -5.109375 6.035156 -2.824219 3.953125 -2.25 Z M 3.953125 -2.25 "/></g></g></g><g fill="#cedeeb" fill-opacity="1"><g transform="translate(221.249369, 277.855056)"><g><path d="M 3.21875 -2.410156 C 2.773438 -2.246094 2.539062 -2.769531 2.527344 -2.796875 L -1.980469 -15.140625 L -3.476562 -14.59375 L 0.902344 -2.597656 C 1.339844 -1.410156 1.816406 -0.4375 3.3125 -0.984375 C 3.816406 -1.167969 4.296875 -1.457031 4.578125 -1.671875 L 4.144531 -2.859375 C 3.9375 -2.742188 3.566406 -2.535156 3.21875 -2.410156 Z M 3.21875 -2.410156 "/></g></g></g><g fill="#cedeeb" fill-opacity="1"><g transform="translate(226.681707, 275.863788)"><g/></g></g><g fill="#cedeeb" fill-opacity="1"><g transform="translate(232.704088, 273.622101)"><g><path d="M 1.535156 -0.886719 L 2.914062 -1.679688 L 0.171875 -6.441406 C -0.785156 -8.09375 -0.976562 -10.308594 0.539062 -11.183594 C 2.101562 -12.082031 3.296875 -10.835938 4.023438 -9.574219 L 7.164062 -4.128906 L 8.550781 -4.929688 L 5.632812 -9.992188 C 4.769531 -11.492188 4.660156 -13.558594 6.160156 -14.421875 C 7.742188 -15.335938 8.984375 -14.042969 9.699219 -12.800781 L 12.820312 -7.390625 L 14.199219 -8.1875 L 11 -13.730469 C 9.832031 -15.761719 7.914062 -16.980469 5.65625 -15.679688 C 4.367188 -14.933594 3.785156 -13.6875 3.914062 -12.128906 C 2.714844 -13.179688 1.316406 -13.175781 0.0273438 -12.433594 C -1.113281 -11.773438 -1.667969 -10.496094 -1.53125 -9.390625 L -2.347656 -10.808594 L -3.726562 -10.011719 Z M 1.535156 -0.886719 "/></g></g></g><g fill="#cedeeb" fill-opacity="1"><g transform="translate(248.789981, 263.988893)"><g><path d="M -3.945312 -11.976562 L -2.84375 -12.839844 L -2.425781 -17.042969 L -4.027344 -15.785156 Z M 3.457031 -2.445312 C 4.632812 -3.371094 5.351562 -4.78125 4.980469 -6.5 L 6.261719 -4.917969 L 7.316406 -5.746094 L 3.324219 -10.828125 C 1.742188 -12.84375 -0.464844 -13.3125 -2.570312 -11.660156 C -3.941406 -10.585938 -4.484375 -9.191406 -4.421875 -7.578125 L -2.964844 -7.582031 C -3.015625 -8.46875 -2.835938 -9.707031 -1.648438 -10.640625 C -0.148438 -11.820312 1.234375 -11.148438 2.460938 -9.589844 L 0.570312 -8.105469 C -1.785156 -6.253906 -2.476562 -4.464844 -1.171875 -2.808594 C 0.0507812 -1.25 1.898438 -1.222656 3.457031 -2.445312 Z M 2.777344 -3.601562 C 1.914062 -2.925781 0.90625 -2.789062 0.132812 -3.777344 C -0.734375 -4.878906 -0.222656 -5.96875 1.421875 -7.257812 L 3.195312 -8.652344 C 4.246094 -7.316406 4.476562 -4.9375 2.777344 -3.601562 Z M 2.777344 -3.601562 "/></g></g></g><g fill="#cedeeb" fill-opacity="1"><g transform="translate(257.724111, 256.896529)"><g><path d="M 0.347656 -0.335938 L 1.738281 -1.675781 L 0.738281 -6.253906 L 5.28125 -5.097656 L 6.632812 -6.402344 L 0.414062 -7.789062 L -0.683594 -13.984375 L -2.035156 -12.679688 L -1.101562 -8.15625 L -5.578125 -9.257812 L -6.96875 -7.917969 L -0.785156 -6.628906 Z M 0.347656 -0.335938 "/></g></g></g><g fill="#cedeeb" fill-opacity="1"><g transform="translate(264.94543, 249.794312)"><g><path d="M -8.484375 -9.832031 L -7.289062 -11.167969 L -8.796875 -12.519531 L -9.992188 -11.183594 Z M 1.195312 -1.335938 L 2.234375 -2.5 L -5.621094 -9.523438 L -6.660156 -8.359375 Z M 1.195312 -1.335938 "/></g></g></g><g fill="#cedeeb" fill-opacity="1"><g transform="translate(269.080915, 245.652737)"><g><path d="M 1.023438 -1.449219 L 1.941406 -2.75 L -2.546875 -5.917969 C -4.105469 -7.019531 -5.210938 -8.949219 -4.199219 -10.378906 C -3.160156 -11.851562 -1.554688 -11.21875 -0.363281 -10.378906 L 4.769531 -6.753906 L 5.695312 -8.0625 L 0.921875 -11.433594 C -0.492188 -12.433594 -1.457031 -14.261719 -0.460938 -15.675781 C 0.59375 -17.167969 2.265625 -16.515625 3.4375 -15.6875 L 8.535156 -12.085938 L 9.453125 -13.386719 L 4.226562 -17.082031 C 2.3125 -18.429688 0.0585938 -18.730469 -1.445312 -16.605469 C -2.300781 -15.390625 -2.304688 -14.011719 -1.535156 -12.652344 C -3.066406 -13.101562 -4.332031 -12.511719 -5.191406 -11.296875 C -5.953125 -10.21875 -5.917969 -8.828125 -5.332031 -7.882812 L -6.664062 -8.828125 L -7.585938 -7.527344 Z M 1.023438 -1.449219 "/></g></g></g><g fill="#cedeeb" fill-opacity="1"><g transform="translate(279.677516, 230.145204)"><g><path d="M 2.835938 -5.148438 C 4.167969 -7.796875 2.863281 -10.757812 0.179688 -12.113281 C -2.492188 -13.460938 -5.625 -12.738281 -6.957031 -10.089844 C -8.296875 -7.433594 -6.992188 -4.542969 -4.320312 -3.195312 C -1.632812 -1.839844 1.496094 -2.496094 2.835938 -5.148438 Z M 1.671875 -5.75 C 0.625 -3.675781 -1.703125 -3.648438 -3.605469 -4.605469 C -5.488281 -5.558594 -6.832031 -7.4375 -5.777344 -9.53125 C -4.722656 -11.621094 -2.421875 -11.640625 -0.535156 -10.691406 C 1.328125 -9.75 2.734375 -7.859375 1.671875 -5.75 Z M 1.671875 -5.75 "/></g></g></g><g fill="#cedeeb" fill-opacity="1"><g transform="translate(285.082328, 219.091587)"><g/></g></g><g clip-path="url(#b2d2ac9414)"><path fill="#cedeeb" d="M 173.246094 228.101562 L 202.628906 228.101562 L 203.449219 205.75 L 209 198.984375 L 212.492188 181.964844 L 203.246094 190.164062 L 196.464844 183.601562 L 183.933594 180.9375 L 191.535156 190.164062 L 195.644531 201.035156 L 197.699219 203.289062 L 194.410156 204.929688 L 194.617188 221.746094 L 191.945312 202.878906 L 187.628906 202.46875 L 193.382812 198.777344 L 180.644531 179.296875 L 171.808594 175.8125 L 174.070312 174.785156 L 175.917969 171.914062 L 175.300781 168.839844 L 180.644531 173.761719 L 189.890625 171.503906 L 190.917969 165.96875 L 171.808594 157.355469 L 158.042969 177.65625 L 176.328125 203.90625 Z M 173.246094 228.101562 " fill-opacity="1" fill-rule="nonzero"/></g><g clip-path="url(#65291251ce)"><path fill="#cedeeb" d="M 181.675781 147.101562 L 174.074219 157.152344 L 184.140625 161.457031 L 189.894531 151.820312 Z M 181.675781 147.101562 " fill-opacity="1" fill-rule="nonzero"/></g><path fill="#cedeeb" d="M 191.128906 152.433594 L 185.171875 161.660156 L 192.15625 165.558594 L 191.128906 170.683594 L 194.828125 168.222656 L 201.402344 158.792969 Z M 191.128906 152.433594 " fill-opacity="1" fill-rule="nonzero"/><path fill="#cedeeb" d="M 200.785156 161.253906 L 209.824219 167.40625 L 197.085938 182.988281 L 188.867188 179.09375 Z M 200.785156 161.253906 " fill-opacity="1" fill-rule="nonzero"/><g clip-path="url(#a926402bed)"><path fill="#cedeeb" d="M 210.847656 168.226562 L 217.21875 176.425781 L 203.246094 188.9375 L 197.699219 184.015625 Z M 210.847656 168.226562 " fill-opacity="1" fill-rule="nonzero"/></g><path fill="#cedeeb" d="M 189.480469 173.554688 L 185.988281 179.503906 L 180.234375 176.222656 Z M 189.480469 173.554688 " fill-opacity="1" fill-rule="nonzero"/></svg>