<svg xmlns="http://www.w3.org/2000/svg" xmlns:xlink="http://www.w3.org/1999/xlink" width="500" zoomAndPan="magnify" viewBox="0 0 375 374.999991" height="500" preserveAspectRatio="xMidYMid meet" version="1.0"><defs><clipPath id="abd8e15f88"><path d="M 120.65625 120.65625 L 254.15625 120.65625 L 254.15625 254.15625 L 120.65625 254.15625 Z M 120.65625 120.65625 " clip-rule="nonzero"/></clipPath><clipPath id="472c883465"><path d="M 158.007812 157 L 213 157 L 213 228.097656 L 158.007812 228.097656 Z M 158.007812 157 " clip-rule="nonzero"/></clipPath><clipPath id="56d78b87f2"><path d="M 174 147.097656 L 190 147.097656 L 190 162 L 174 162 Z M 174 147.097656 " clip-rule="nonzero"/></clipPath><clipPath id="141385af80"><path d="M 197 168 L 217.257812 168 L 217.257812 189 L 197 189 Z M 197 168 " clip-rule="nonzero"/></clipPath></defs><g clip-path="url(#abd8e15f88)"><path fill="#8c3839" d="M 254.023438 187.40625 C 254.023438 188.496094 253.996094 189.585938 253.941406 190.671875 C 253.886719 191.761719 253.808594 192.847656 253.699219 193.933594 C 253.59375 195.019531 253.460938 196.101562 253.300781 197.179688 C 253.140625 198.257812 252.953125 199.332031 252.742188 200.402344 C 252.527344 201.46875 252.289062 202.535156 252.023438 203.589844 C 251.761719 204.648438 251.46875 205.699219 251.152344 206.742188 C 250.835938 207.785156 250.496094 208.820312 250.128906 209.847656 C 249.761719 210.875 249.367188 211.890625 248.949219 212.898438 C 248.535156 213.90625 248.09375 214.902344 247.625 215.886719 C 247.160156 216.871094 246.667969 217.847656 246.15625 218.808594 C 245.640625 219.769531 245.105469 220.71875 244.542969 221.652344 C 243.984375 222.589844 243.402344 223.507812 242.792969 224.414062 C 242.1875 225.320312 241.5625 226.210938 240.910156 227.089844 C 240.261719 227.964844 239.59375 228.824219 238.898438 229.667969 C 238.207031 230.507812 237.496094 231.335938 236.765625 232.140625 C 236.03125 232.949219 235.28125 233.738281 234.511719 234.511719 C 233.738281 235.28125 232.949219 236.03125 232.140625 236.765625 C 231.335938 237.496094 230.507812 238.207031 229.667969 238.898438 C 228.824219 239.59375 227.964844 240.261719 227.089844 240.910156 C 226.210938 241.5625 225.320312 242.1875 224.414062 242.792969 C 223.507812 243.402344 222.589844 243.984375 221.652344 244.542969 C 220.71875 245.105469 219.769531 245.640625 218.808594 246.15625 C 217.847656 246.667969 216.871094 247.160156 215.886719 247.625 C 214.902344 248.09375 213.90625 248.535156 212.898438 248.949219 C 211.890625 249.367188 210.875 249.761719 209.847656 250.128906 C 208.820312 250.496094 207.785156 250.835938 206.742188 251.152344 C 205.699219 251.46875 204.648438 251.761719 203.589844 252.023438 C 202.535156 252.289062 201.46875 252.527344 200.402344 252.742188 C 199.332031 252.953125 198.257812 253.140625 197.179688 253.300781 C 196.101562 253.460938 195.019531 253.59375 193.933594 253.699219 C 192.847656 253.808594 191.761719 253.886719 190.671875 253.941406 C 189.585938 253.996094 188.496094 254.023438 187.40625 254.023438 C 186.316406 254.023438 185.226562 253.996094 184.136719 253.941406 C 183.046875 253.886719 181.960938 253.808594 180.875 253.699219 C 179.789062 253.59375 178.707031 253.460938 177.628906 253.300781 C 176.550781 253.140625 175.476562 252.953125 174.410156 252.742188 C 173.339844 252.527344 172.277344 252.289062 171.21875 252.023438 C 170.160156 251.761719 169.109375 251.46875 168.066406 251.152344 C 167.023438 250.835938 165.988281 250.496094 164.960938 250.128906 C 163.9375 249.761719 162.917969 249.367188 161.910156 248.949219 C 160.90625 248.535156 159.90625 248.09375 158.921875 247.625 C 157.9375 247.160156 156.964844 246.667969 156.003906 246.15625 C 155.039062 245.640625 154.09375 245.105469 153.15625 244.542969 C 152.222656 243.984375 151.300781 243.402344 150.394531 242.792969 C 149.488281 242.1875 148.597656 241.5625 147.722656 240.910156 C 146.84375 240.261719 145.988281 239.59375 145.144531 238.898438 C 144.300781 238.207031 143.476562 237.496094 142.667969 236.765625 C 141.859375 236.03125 141.070312 235.28125 140.300781 234.511719 C 139.527344 233.738281 138.777344 232.949219 138.046875 232.140625 C 137.3125 231.335938 136.601562 230.507812 135.910156 229.667969 C 135.21875 228.824219 134.546875 227.964844 133.898438 227.089844 C 133.25 226.210938 132.621094 225.320312 132.015625 224.414062 C 131.410156 223.507812 130.828125 222.589844 130.265625 221.652344 C 129.707031 220.71875 129.167969 219.769531 128.652344 218.808594 C 128.140625 217.847656 127.648438 216.871094 127.183594 215.886719 C 126.71875 214.902344 126.277344 213.90625 125.859375 212.898438 C 125.441406 211.890625 125.050781 210.875 124.683594 209.847656 C 124.316406 208.820312 123.972656 207.785156 123.65625 206.742188 C 123.339844 205.699219 123.050781 204.648438 122.785156 203.589844 C 122.519531 202.535156 122.28125 201.46875 122.066406 200.402344 C 121.855469 199.332031 121.667969 198.257812 121.507812 197.179688 C 121.347656 196.101562 121.214844 195.019531 121.109375 193.933594 C 121.003906 192.847656 120.921875 191.761719 120.867188 190.671875 C 120.816406 189.585938 120.789062 188.496094 120.789062 187.40625 C 120.789062 186.316406 120.816406 185.226562 120.867188 184.136719 C 120.921875 183.046875 121.003906 181.960938 121.109375 180.875 C 121.214844 179.789062 121.347656 178.707031 121.507812 177.628906 C 121.667969 176.550781 121.855469 175.476562 122.066406 174.410156 C 122.28125 173.339844 122.519531 172.277344 122.785156 171.21875 C 123.050781 170.160156 123.339844 169.109375 123.65625 168.066406 C 123.972656 167.023438 124.316406 165.988281 124.683594 164.960938 C 125.050781 163.9375 125.441406 162.917969 125.859375 161.910156 C 126.277344 160.90625 126.71875 159.90625 127.183594 158.921875 C 127.648438 157.9375 128.140625 156.964844 128.652344 156.003906 C 129.167969 155.039062 129.707031 154.09375 130.265625 153.15625 C 130.828125 152.222656 131.410156 151.300781 132.015625 150.394531 C 132.621094 149.488281 133.25 148.597656 133.898438 147.722656 C 134.546875 146.84375 135.21875 145.988281 135.910156 145.144531 C 136.601562 144.300781 137.3125 143.476562 138.046875 142.667969 C 138.777344 141.859375 139.527344 141.070312 140.300781 140.300781 C 141.070312 139.527344 141.859375 138.777344 142.667969 138.046875 C 143.476562 137.3125 144.300781 136.601562 145.144531 135.910156 C 145.988281 135.21875 146.84375 134.546875 147.722656 133.898438 C 148.597656 133.25 149.488281 132.621094 150.394531 132.015625 C 151.300781 131.410156 152.222656 130.828125 153.15625 130.265625 C 154.09375 129.707031 155.039062 129.167969 156.003906 128.652344 C 156.964844 128.140625 157.9375 127.648438 158.921875 127.183594 C 159.90625 126.71875 160.90625 126.277344 161.910156 125.859375 C 162.917969 125.441406 163.9375 125.050781 164.960938 124.683594 C 165.988281 124.316406 167.023438 123.972656 168.066406 123.65625 C 169.109375 123.339844 170.160156 123.050781 171.21875 122.785156 C 172.277344 122.519531 173.339844 122.28125 174.410156 122.066406 C 175.476562 121.855469 176.550781 121.667969 177.628906 121.507812 C 178.707031 121.347656 179.789062 121.214844 180.875 121.109375 C 181.960938 121.003906 183.046875 120.921875 184.136719 120.867188 C 185.226562 120.816406 186.316406 120.789062 187.40625 120.789062 C 188.496094 120.789062 189.585938 120.816406 190.671875 120.867188 C 191.761719 120.921875 192.847656 121.003906 193.933594 121.109375 C 195.019531 121.214844 196.101562 121.347656 197.179688 121.507812 C 198.257812 121.667969 199.332031 121.855469 200.402344 122.066406 C 201.46875 122.28125 202.535156 122.519531 203.589844 122.785156 C 204.648438 123.050781 205.699219 123.339844 206.742188 123.65625 C 207.785156 123.972656 208.820312 124.316406 209.847656 124.683594 C 210.875 125.050781 211.890625 125.441406 212.898438 125.859375 C 213.90625 126.277344 214.902344 126.71875 215.886719 127.183594 C 216.871094 127.648438 217.847656 128.140625 218.808594 128.652344 C 219.769531 129.167969 220.71875 129.707031 221.652344 130.265625 C 222.589844 130.828125 223.507812 131.410156 224.414062 132.015625 C 225.320312 132.621094 226.210938 133.25 227.089844 133.898438 C 227.964844 134.546875 228.824219 135.21875 229.667969 135.910156 C 230.507812 136.601562 231.335938 137.3125 232.140625 138.046875 C 232.949219 138.777344 233.738281 139.527344 234.511719 140.300781 C 235.28125 141.070312 236.03125 141.859375 236.765625 142.667969 C 237.496094 143.476562 238.207031 144.300781 238.898438 145.144531 C 239.59375 145.988281 240.261719 146.84375 240.910156 147.722656 C 241.5625 148.597656 242.1875 149.488281 242.792969 150.394531 C 243.402344 151.300781 243.984375 152.222656 244.542969 153.15625 C 245.105469 154.09375 245.640625 155.039062 246.15625 156.003906 C 246.667969 156.964844 247.160156 157.9375 247.625 158.921875 C 248.09375 159.90625 248.535156 160.90625 248.949219 161.910156 C 249.367188 162.917969 249.761719 163.9375 250.128906 164.960938 C 250.496094 165.988281 250.835938 167.023438 251.152344 168.066406 C 251.46875 169.109375 251.761719 170.160156 252.023438 171.21875 C 252.289062 172.277344 252.527344 173.339844 252.742188 174.410156 C 252.953125 175.476562 253.140625 176.550781 253.300781 177.628906 C 253.460938 178.707031 253.59375 179.789062 253.699219 180.875 C 253.808594 181.960938 253.886719 183.046875 253.941406 184.136719 C 253.996094 185.226562 254.023438 186.316406 254.023438 187.40625 Z M 254.023438 187.40625 " fill-opacity="1" fill-rule="nonzero"/><path fill="#cedeeb" d="M 187.40625 254.15625 C 169.578125 254.15625 152.816406 247.199219 140.214844 234.597656 C 127.609375 221.992188 120.65625 205.230469 120.65625 187.40625 C 120.65625 169.578125 127.609375 152.816406 140.214844 140.214844 C 152.816406 127.609375 169.578125 120.65625 187.40625 120.65625 C 205.230469 120.65625 221.992188 127.609375 234.597656 140.214844 C 247.199219 152.816406 254.15625 169.578125 254.15625 187.40625 C 254.15625 205.230469 247.199219 221.992188 234.597656 234.597656 C 221.992188 247.199219 205.230469 254.15625 187.40625 254.15625 Z M 187.40625 124.652344 C 170.644531 124.652344 154.894531 131.179688 143.039062 143.039062 C 131.179688 154.894531 124.652344 170.644531 124.652344 187.40625 C 124.652344 204.164062 131.179688 219.914062 143.039062 231.773438 C 154.894531 243.628906 170.644531 250.15625 187.40625 250.15625 C 204.164062 250.15625 219.914062 243.628906 231.773438 231.773438 C 243.628906 219.914062 250.15625 204.164062 250.15625 187.40625 C 250.15625 170.644531 243.628906 154.894531 231.773438 143.039062 C 219.914062 131.179688 204.164062 124.652344 187.40625 124.652344 Z M 187.40625 124.652344 " fill-opacity="1" fill-rule="nonzero"/></g><g clip-path="url(#472c883465)"><path fill="#cedeeb" d="M 173.246094 228.101562 L 202.628906 228.101562 L 203.449219 205.75 L 209 198.984375 L 212.492188 181.964844 L 203.246094 190.164062 L 196.464844 183.601562 L 183.933594 180.9375 L 191.535156 190.164062 L 195.644531 201.035156 L 197.699219 203.289062 L 194.410156 204.929688 L 194.617188 221.746094 L 191.945312 202.878906 L 187.628906 202.46875 L 193.382812 198.777344 L 180.644531 179.296875 L 171.808594 175.8125 L 174.070312 174.785156 L 175.917969 171.914062 L 175.300781 168.839844 L 180.644531 173.761719 L 189.890625 171.503906 L 190.917969 165.96875 L 171.808594 157.355469 L 158.042969 177.65625 L 176.328125 203.90625 Z M 173.246094 228.101562 " fill-opacity="1" fill-rule="nonzero"/></g><g clip-path="url(#56d78b87f2)"><path fill="#cedeeb" d="M 181.675781 147.101562 L 174.074219 157.152344 L 184.140625 161.457031 L 189.894531 151.820312 Z M 181.675781 147.101562 " fill-opacity="1" fill-rule="nonzero"/></g><path fill="#cedeeb" d="M 191.128906 152.433594 L 185.171875 161.660156 L 192.15625 165.558594 L 191.128906 170.683594 L 194.828125 168.222656 L 201.402344 158.792969 Z M 191.128906 152.433594 " fill-opacity="1" fill-rule="nonzero"/><path fill="#cedeeb" d="M 200.785156 161.253906 L 209.824219 167.40625 L 197.085938 182.988281 L 188.867188 179.09375 Z M 200.785156 161.253906 " fill-opacity="1" fill-rule="nonzero"/><g clip-path="url(#141385af80)"><path fill="#cedeeb" d="M 210.847656 168.226562 L 217.21875 176.425781 L 203.246094 188.9375 L 197.699219 184.015625 Z M 210.847656 168.226562 " fill-opacity="1" fill-rule="nonzero"/></g><path fill="#cedeeb" d="M 189.480469 173.554688 L 185.988281 179.503906 L 180.234375 176.222656 Z M 189.480469 173.554688 " fill-opacity="1" fill-rule="nonzero"/></svg>